<svg version="1.1" id="Layer_1" xmlns="http://www.w3.org/2000/svg" xmlns:xlink="http://www.w3.org/1999/xlink" x="0px" y="0px"
	 width="100%" viewBox="0 0 400 400" enable-background="new 0 0 400 400" xml:space="preserve">
<path fill="#000000" opacity="1.000000" stroke="none" 
	d="
M83.728241,137.001373 
	C83.866158,130.348267 83.375931,124.175507 84.491562,118.053024 
	C85.113632,114.639175 83.579224,113.193016 80.072128,113.248245 
	C72.570976,113.366348 65.115990,113.160690 57.971897,110.240662 
	C51.630409,107.648682 46.966766,103.307541 44.062027,97.259392 
	C40.431076,89.699173 44.655407,79.612442 52.758591,75.948997 
	C61.740978,71.888046 71.440445,71.113892 81.033043,70.812965 
	C105.518867,70.044830 129.950058,72.626915 154.428345,72.630661 
	C180.092545,72.634590 205.603561,75.865555 231.269913,75.939972 
	C238.062317,75.959671 244.828888,77.755119 250.066345,82.810776 
	C252.729019,85.381020 255.314514,88.138885 255.261566,92.125679 
	C255.197952,96.915848 257.705200,97.767456 261.923218,97.753113 
	C285.581970,97.672600 309.241547,97.829338 332.900818,97.907333 
	C341.601166,97.936020 341.446350,97.938118 341.407166,106.553154 
	C341.278381,134.866806 342.475098,163.166901 342.047028,191.490479 
	C341.475647,229.298355 341.371185,267.113190 340.945129,304.923676 
	C340.914307,307.660614 341.420471,309.473022 343.693359,311.264435 
	C349.227936,315.626678 350.721771,321.721100 349.127319,328.321198 
	C347.493469,335.084412 343.288483,339.452515 336.240509,341.452240 
	C318.139130,346.588165 299.676727,346.278625 281.256714,345.193848 
	C257.938416,343.820618 234.627518,344.616882 211.315292,344.371338 
	C198.767441,344.239136 186.384674,342.740509 174.335083,339.398224 
	C164.546051,336.682922 161.234558,331.693695 161.022491,321.571930 
	C161.005569,320.763397 161.095581,319.952606 161.123474,319.392395 
	C160.042938,318.043762 158.797806,318.310944 157.676712,318.287537 
	C135.701797,317.829132 113.726738,317.376007 91.750938,316.962524 
	C84.998131,316.835480 84.687119,316.633026 84.679657,309.906097 
	C84.650253,283.414093 85.216469,256.906952 84.501801,230.434021 
	C83.665398,199.452194 83.826820,168.479431 83.728241,137.001373 
M265.973877,192.191345 
	C265.301849,197.598846 263.813538,202.764053 260.731995,207.328415 
	C274.692230,214.205750 280.449036,229.889526 274.152222,242.432343 
	C271.174103,248.364532 271.657684,251.600494 276.456696,256.179565 
	C277.971771,257.625214 279.623322,259.447662 282.098877,257.897491 
	C284.302643,256.517548 285.450836,254.575134 284.405823,251.966049 
	C282.599365,247.455643 284.439697,244.496735 288.435059,242.661469 
	C292.373688,240.852295 296.044983,241.449051 298.575928,245.186295 
	C299.732697,246.894424 300.899475,247.749191 302.982788,247.719025 
	C309.427551,247.625671 315.285400,251.224930 315.802307,256.665741 
	C316.309540,262.004639 318.541260,267.711731 316.478729,273.263123 
	C316.205780,273.997803 315.530243,274.630005 314.924927,275.182312 
	C314.148987,275.890289 313.767059,276.679932 313.549255,277.724976 
	C312.261017,283.906616 309.357239,286.077637 303.036438,284.863922 
	C300.175049,284.314514 298.710449,285.140198 297.308838,287.359833 
	C295.096741,290.862915 291.826324,292.884918 287.944824,294.414856 
	C283.880310,296.016968 279.784973,295.121490 275.717987,295.427124 
	C274.697144,299.259827 276.973419,299.867981 279.770844,300.018951 
	C288.249969,300.476532 296.724762,301.213898 305.208496,301.335388 
	C315.537109,301.483246 325.573151,303.838257 335.702179,305.064636 
	C337.628906,298.458496 338.512665,177.938965 336.660828,171.982071 
	C330.936371,172.520264 325.056976,172.835419 319.575592,170.439606 
	C316.440857,169.069473 313.522766,168.579727 310.017548,169.040192 
	C302.957397,169.967682 296.037323,169.194702 290.586761,163.980331 
	C281.654236,168.748367 276.569183,166.438660 274.747345,156.771927 
	C274.313416,154.469437 272.994019,153.938751 271.179352,153.279343 
	C264.761749,150.947403 258.868500,146.968918 258.138824,140.134354 
	C257.629822,135.366791 255.979645,131.981796 253.653290,128.204895 
	C248.824707,120.365555 249.736023,112.443611 254.684448,104.627983 
	C247.946243,112.145905 238.267700,111.121979 229.644684,113.544647 
	C231.047394,118.098793 232.519287,122.423195 230.163208,126.498047 
	C227.195236,131.631195 224.012985,136.604965 221.367798,141.957092 
	C219.605988,145.521881 215.760071,147.713486 211.620117,148.259186 
	C208.469498,148.674500 206.652435,150.111877 205.145737,152.889832 
	C202.133575,158.443451 195.399002,159.014221 191.678421,153.960709 
	C190.005630,151.688644 188.220566,151.202606 185.769104,151.312454 
	C183.606979,151.409332 181.435852,151.374710 179.270615,151.320786 
	C166.954193,151.014221 158.949722,144.267349 156.569626,132.230209 
	C156.473770,131.745407 156.389816,131.188675 156.101364,130.821960 
	C151.922867,125.509819 152.077667,119.846367 155.654144,113.309692 
	C150.395905,113.309692 146.117828,113.310516 141.839752,113.309540 
	C130.236237,113.306900 130.239990,113.305992 132.041260,124.467270 
	C132.223755,125.598083 132.651093,126.852074 131.602249,127.750381 
	C130.287827,128.876160 129.050186,127.978096 127.971413,127.256516 
	C124.354309,124.837051 122.290344,121.232712 120.830902,117.279549 
	C120.028023,115.104813 119.191582,113.362877 116.414917,113.389481 
	C108.253250,113.467690 100.090294,113.400101 91.928101,113.440536 
	C89.372612,113.453194 88.278473,114.616837 89.340546,117.544571 
	C94.968918,117.146988 100.508842,116.612251 106.160545,117.379982 
	C113.764893,118.412949 121.869110,125.764458 122.250908,133.290176 
	C122.379951,135.833725 123.230232,137.404297 125.181648,139.132965 
	C131.685944,144.894821 134.102097,152.357910 131.942657,160.767502 
	C131.266129,163.402100 131.415817,164.930817 133.117889,166.906769 
	C135.452667,169.617249 136.134445,172.744690 134.122116,176.127716 
	C132.080765,179.559540 129.385681,181.818008 125.195053,181.171310 
	C123.012405,180.834473 121.370331,181.213013 119.816940,182.829315 
	C118.127205,184.587494 115.728371,185.226669 113.439972,185.306976 
	C110.923714,185.395248 108.971107,186.296051 107.125443,187.817841 
	C103.116547,191.123215 98.320793,192.179062 93.502304,190.997986 
	C88.850716,189.857834 87.966148,191.543121 88.051056,195.623840 
	C88.827553,232.941467 87.717583,270.276184 89.048027,307.592804 
	C89.189697,311.566559 90.618713,312.762695 94.436348,312.691956 
	C103.596176,312.522125 112.743431,312.907532 121.903702,313.464996 
	C131.535995,314.051086 141.228378,313.666138 150.894516,313.666351 
	C152.889328,313.666382 155.406525,313.806061 155.489182,311.058472 
	C155.633194,306.270630 157.232788,301.737946 157.936020,296.770111 
	C149.465820,301.498474 136.437256,299.452148 130.194077,287.097687 
	C125.952934,288.234161 120.374908,289.271515 119.080452,284.286743 
	C117.756538,279.188507 111.653313,279.730560 110.964035,275.058472 
	C110.844498,274.248230 110.629959,273.306213 110.912910,272.609161 
	C111.838509,270.328918 110.899651,268.939819 109.224953,267.456970 
	C106.468391,265.016235 106.282944,262.181824 108.231300,258.960327 
	C111.059242,254.284454 115.413223,252.211029 120.465637,251.164230 
	C122.413628,250.760635 124.379936,250.692551 125.322014,248.355392 
	C126.988174,244.221878 130.162598,241.920517 134.657776,242.332184 
	C139.527664,242.778152 143.074860,245.406570 144.615692,250.169708 
	C145.410110,252.625458 146.675232,254.672440 148.505508,256.415985 
	C152.564774,260.282959 154.340195,260.048584 158.520554,255.128876 
	C163.233032,249.582932 163.344757,248.508911 158.303986,245.124924 
	C145.478012,236.514526 144.586777,213.539917 160.171906,208.833221 
	C160.590286,208.706863 160.893982,208.200699 161.215454,207.904556 
	C157.662186,186.449615 161.394638,175.614838 175.148422,169.070236 
	C181.980972,165.819031 189.338043,164.118637 196.993454,165.838745 
	C204.555115,167.537750 210.506073,171.664520 214.360901,178.697067 
	C223.114243,166.204269 235.034225,161.643738 247.778763,165.608002 
	C259.148438,169.144592 265.741333,178.414505 265.973877,192.191345 
M308.973328,265.417877 
	C307.590820,264.668427 305.634949,264.718719 305.094452,262.635376 
	C305.738190,260.544922 307.519196,260.751587 309.142120,260.633484 
	C310.512970,260.533752 311.913727,260.302460 312.347778,258.767242 
	C312.769684,257.275085 311.688171,256.266602 310.750153,255.336166 
	C308.025055,252.633118 304.791718,250.792191 300.900208,251.690002 
	C297.802612,252.404648 296.301056,251.801147 295.528442,248.558929 
	C294.773254,245.389740 292.033539,245.825378 289.806946,246.621597 
	C287.310181,247.514404 287.391479,249.329224 288.670074,251.443329 
	C291.152954,255.548676 287.984802,258.120453 285.584778,260.410919 
	C283.133301,262.750488 280.139862,264.072021 276.590149,261.647339 
	C272.423370,258.801178 270.155914,254.614410 267.870697,250.476410 
	C266.179077,249.703766 264.733582,252.251190 263.036285,250.518753 
	C261.993622,248.575623 263.469025,247.504517 264.836823,246.594452 
	C273.468445,240.851212 273.271698,232.433167 271.345642,223.857117 
	C269.638306,216.255142 264.910706,212.659424 257.301727,212.162735 
	C255.885483,212.070282 254.560501,212.045532 254.026627,210.522476 
	C253.388367,208.701584 254.318451,207.431274 255.583298,206.140152 
	C262.721924,198.853271 263.482208,190.206192 259.960541,181.201706 
	C256.802460,173.126801 250.099869,169.069763 241.683334,168.659378 
	C228.206833,168.002304 218.763870,172.334106 217.879684,187.003036 
	C217.529922,192.805664 218.204468,198.220062 220.743759,203.417877 
	C221.316330,204.589935 222.275314,205.782562 221.312515,207.110306 
	C220.258224,208.564194 218.879669,207.644669 217.662292,207.317261 
	C213.521393,206.203644 209.457352,206.046646 205.476669,207.962967 
	C204.423553,208.469940 203.228455,209.007935 202.364426,207.708801 
	C201.713531,206.730118 202.141190,205.724640 202.909317,205.017929 
	C203.757462,204.237595 204.782822,203.653702 205.696747,202.940369 
	C210.978653,198.817795 213.488388,193.529114 212.328629,186.780045 
	C210.449066,175.842331 202.352753,169.262207 190.900146,169.303604 
	C173.640289,169.365997 162.041290,181.653717 163.354950,198.549118 
	C163.717239,203.208694 165.559158,207.378052 168.162933,210.959763 
	C167.506302,212.369766 166.584045,212.517273 165.536362,212.639526 
	C154.843353,213.887054 150.419373,220.367661 153.161423,230.704590 
	C155.475388,239.427658 162.564911,245.180115 172.783188,246.509338 
	C174.134857,246.685150 175.743866,246.451233 175.683670,248.325058 
	C175.632904,249.905914 174.208160,250.498474 172.789948,250.454529 
	C170.838654,250.394058 168.894333,250.108093 167.299622,249.953003 
	C165.402496,252.484497 163.766129,254.777115 162.018326,256.981354 
	C154.496964,266.466980 149.631332,265.224792 141.924683,254.687790 
	C141.183731,253.674713 141.211304,252.133957 140.659973,250.940796 
	C139.387375,248.186676 137.295624,246.410446 134.129440,246.373703 
	C131.163712,246.339279 129.516586,247.945587 129.096085,250.847397 
	C128.629425,254.067871 126.074883,254.536758 123.574890,254.906845 
	C120.599854,255.347229 117.635521,255.685669 115.109001,257.558533 
	C113.057579,259.079224 110.623123,260.799469 111.599800,263.536591 
	C112.753235,266.769135 115.532906,265.681549 117.945816,264.710510 
	C119.081581,264.253448 120.320015,264.061951 120.924683,265.484680 
	C121.512299,266.867310 120.493713,267.629425 119.503708,268.299164 
	C118.953506,268.671387 118.356544,268.973846 117.787224,269.318604 
	C115.966637,270.421021 114.330444,271.983887 115.204666,274.126373 
	C116.111900,276.349731 118.477638,276.045898 120.481041,275.647919 
	C121.444473,275.456543 122.354736,274.986603 123.281250,274.622894 
	C124.519737,274.136688 125.865524,273.366638 126.768600,274.997192 
	C127.491066,276.301605 126.528061,277.212524 125.582390,277.929260 
	C123.862465,279.232758 121.360939,280.631470 123.067955,282.984436 
	C125.013016,285.665497 127.350456,283.298401 129.149216,282.133698 
	C132.384232,280.039062 133.511124,280.695190 134.419693,284.500549 
	C136.636261,293.784271 147.662567,297.778534 156.015030,292.982300 
	C158.141235,291.761383 159.838135,287.709625 162.538773,289.754700 
	C165.313446,291.855835 162.646332,295.261230 162.203033,298.071381 
	C161.998032,299.371002 161.359436,300.595825 161.035278,301.884216 
	C160.082336,305.672028 159.635147,309.495361 160.016983,313.250000 
	C161.431808,313.613861 162.151428,313.208160 162.605240,312.458649 
	C167.347275,304.626678 174.938080,302.110107 183.410553,300.393250 
	C196.652451,297.709991 209.975983,299.157227 223.251266,298.566559 
	C225.154373,298.481873 227.254532,299.234375 229.118057,297.426666 
	C228.740021,294.412506 228.287567,291.304108 227.985184,288.181183 
	C227.836380,286.644562 228.096664,285.063934 229.815186,284.463013 
	C231.365814,283.920807 232.415680,285.135315 233.160568,286.123840 
	C235.560898,289.309326 237.733322,292.665314 240.071777,295.899017 
	C241.527588,297.912170 243.070816,300.474426 245.660446,300.468994 
	C254.082169,300.451385 262.502899,299.966339 271.067810,299.656006 
	C271.067810,298.234924 271.097687,297.421387 271.063171,296.610596 
	C270.754028,289.351471 271.746674,288.588898 278.347656,291.035339 
	C283.522675,292.953308 292.110870,289.558167 294.391876,284.005676 
	C295.856934,280.439484 297.933441,280.093170 301.014618,280.753693 
	C302.474670,281.066681 303.966034,281.504272 305.429749,281.458130 
	C307.089569,281.405853 308.879669,280.912689 309.395142,279.016510 
	C309.905701,277.138367 308.343933,276.432281 307.014557,275.707001 
	C305.990509,275.148285 304.859314,274.670776 305.165070,273.006561 
	C306.918365,270.424561 310.235046,273.104370 311.927002,271.487915 
	C315.347809,268.219757 311.523956,267.234528 308.973328,265.417877 
M206.528122,302.325195 
	C197.134552,301.880829 187.922195,303.336182 178.829620,305.383331 
	C169.390549,307.508484 164.860977,313.664154 165.265381,322.960938 
	C165.621628,331.150818 170.029251,334.910706 180.028763,336.790558 
	C193.660187,339.353210 207.368973,340.023682 221.190353,339.941528 
	C244.003845,339.805908 266.797272,340.208923 289.596283,341.518524 
	C305.201263,342.414886 320.847321,341.761261 336.068481,337.132111 
	C341.869873,335.367706 344.289856,331.016846 345.451843,325.917999 
	C346.579712,320.968872 344.347717,316.903625 340.260986,313.831604 
	C331.240906,307.051208 320.396545,306.230743 309.925354,305.574371 
	C291.494263,304.419067 272.972321,303.290985 254.517761,304.493164 
	C245.185928,305.101074 238.235931,302.968292 233.894424,294.387451 
	C233.817490,294.235382 233.323898,294.294128 232.992264,294.250214 
	C233.104675,296.068542 233.264709,297.877777 233.316345,299.690094 
	C233.380585,301.945709 232.478256,302.863892 229.981598,302.761780 
	C222.500763,302.455872 215.007736,302.447968 206.528122,302.325195 
M250.310165,89.498657 
	C245.972885,83.236481 239.715057,80.623383 232.378021,80.278786 
	C221.402496,79.763283 210.369186,79.902939 199.453491,78.823288 
	C182.860153,77.182060 166.219360,77.314331 149.606750,76.544945 
	C139.465118,76.075249 129.295395,76.240135 119.148079,75.858994 
	C104.362190,75.303642 89.565323,73.571251 74.797943,75.441803 
	C67.784294,76.330200 60.497272,76.284561 54.035404,80.107994 
	C46.783085,84.399139 45.063507,92.465561 50.042221,99.223381 
	C54.076977,104.699913 59.858944,108.008827 66.085419,108.330795 
	C81.857903,109.146400 97.674446,110.625633 113.487633,109.250046 
	C121.588470,108.545357 121.562431,108.298866 124.563431,115.994713 
	C124.637245,116.184021 125.098038,116.222420 125.379196,116.329010 
	C126.055153,108.904320 126.054863,108.985565 133.805115,109.012985 
	C148.120361,109.063637 162.436127,109.043663 176.751419,108.988998 
	C195.075806,108.919037 213.400238,108.815086 231.723846,108.641075 
	C233.922165,108.620201 236.680115,109.236763 237.788696,106.491058 
	C238.239136,105.375381 237.504623,103.652679 239.317673,103.309418 
	C241.726746,102.853340 240.915390,105.922676 242.448105,106.460091 
	C250.982162,104.530586 253.211899,100.050819 250.310165,89.498657 
M276.970337,150.306366 
	C278.116272,150.435028 279.267700,150.711426 280.407227,150.668732 
	C288.765442,150.355576 289.489410,150.889221 292.592316,159.076248 
	C293.817780,162.309753 296.527405,164.094650 299.774902,164.572769 
	C304.214203,165.226364 308.749176,165.551071 313.121338,164.080276 
	C314.681274,163.555511 315.985840,163.396591 317.280334,164.548111 
	C321.711060,168.489487 327.153168,167.931290 332.460510,167.899780 
	C336.173004,167.877747 337.749817,166.017685 337.727631,162.245178 
	C337.618835,143.759644 337.581268,125.272934 337.681610,106.787529 
	C337.700989,103.212189 336.275818,102.267654 332.922058,102.272102 
	C311.605560,102.300377 290.288574,102.211288 268.972687,102.039673 
	C265.920441,102.015099 263.499390,102.997375 261.259399,104.897209 
	C252.479416,112.343765 252.321136,122.199409 260.794434,130.323975 
	C262.332886,131.799103 265.254059,133.171738 262.842316,135.935364 
	C260.602753,138.501709 261.707397,140.487259 263.336365,142.561554 
	C266.626465,146.751068 270.490540,149.988251 276.970337,150.306366 
M195.374512,144.914429 
	C198.030441,143.813553 200.617416,144.916428 203.218552,145.198853 
	C210.187317,145.955505 217.679413,142.739456 218.988098,137.449707 
	C219.963211,133.508301 221.857269,130.734406 224.570312,127.925507 
	C227.420349,124.974762 227.792114,121.020088 226.173203,117.192596 
	C224.640549,113.569077 221.523743,113.106514 217.911530,113.139832 
	C200.785751,113.297806 183.657288,113.352921 166.531815,113.205978 
	C162.797089,113.173935 160.137512,114.007263 158.484940,117.543411 
	C156.971909,120.780922 156.519073,123.748833 158.835907,126.880508 
	C159.885300,128.298996 161.191681,130.345657 160.891708,131.800049 
	C159.701508,137.570496 163.214218,140.777237 167.121567,143.205933 
	C175.820816,148.613113 185.148697,149.447754 195.374512,144.914429 
M117.796509,162.319351 
	C115.637932,162.598389 114.939705,164.399216 114.003761,165.954849 
	C113.226440,167.246841 112.447990,168.909760 110.851990,168.909164 
	C106.872749,168.907669 105.105423,171.416306 103.310867,174.390533 
	C102.313438,176.043640 100.908676,178.240219 98.228607,176.446960 
	C97.833931,173.978882 100.551178,172.638687 100.001320,169.923950 
	C94.705025,169.324448 95.188782,161.121506 88.085510,161.058731 
	C88.085510,167.096176 88.077927,173.035217 88.087570,178.974243 
	C88.098000,185.400604 90.748505,188.056976 97.076500,187.560715 
	C100.441849,187.296783 103.608322,186.116119 105.869118,183.381699 
	C107.087097,181.908554 108.125282,181.007172 110.427338,181.293732 
	C116.245110,182.017929 118.608620,179.727753 118.563866,173.703903 
	C118.539352,170.403976 119.666809,167.896240 122.236015,165.938766 
	C129.620834,160.312332 131.201996,156.289108 126.530006,148.188828 
	C122.930771,141.948517 117.166527,136.947159 116.685989,129.099411 
	C116.677406,128.959259 116.497902,128.831573 116.403564,128.694366 
	C111.466194,121.513161 98.096031,118.523247 90.607277,122.918678 
	C89.564995,123.530434 88.507195,124.287338 88.493362,125.526711 
	C88.416702,132.395187 88.456627,139.264954 88.456627,147.015488 
	C91.826187,144.801819 95.422272,145.464767 96.204590,141.440384 
	C96.976494,137.469559 99.829155,135.470230 103.797775,135.634323 
	C111.221992,135.941299 114.235802,137.817215 115.410057,142.710571 
	C115.775497,144.233444 115.833847,145.608948 117.787048,145.949570 
	C124.087288,147.048309 122.057648,152.656982 123.068184,156.404099 
	C123.923241,159.574677 120.952354,160.903778 117.796509,162.319351 
M287.593353,160.280136 
	C289.486603,156.808762 287.149200,155.333359 284.509125,154.538651 
	C282.372131,153.895355 279.864075,154.431000 279.130890,156.819260 
	C278.354340,159.348740 280.034760,161.235504 282.306793,162.283600 
	C284.243988,163.177231 285.799713,162.165314 287.593353,160.280136 
M130.802780,170.525238 
	C130.199066,169.977646 129.685089,169.188843 128.975830,168.924973 
	C126.175667,167.883240 124.076363,169.203964 122.821716,171.535477 
	C121.709816,173.601715 122.686234,175.524643 124.697540,176.468964 
	C127.179283,177.634125 129.173553,176.551346 130.600876,174.370590 
	C131.244629,173.386993 131.707291,172.326462 130.802780,170.525238 
M201.735962,150.925934 
	C198.781494,147.479202 197.072052,147.697998 195.074844,151.965836 
	C197.374924,153.621384 199.514313,153.986694 201.735962,150.925934 
z"/>
<path fill="#000000" opacity="1.000000" stroke="none" 
	d="
M280.691162,179.480560 
	C277.099670,182.014053 273.551147,182.637054 270.295074,180.117371 
	C267.832031,178.211334 266.608978,175.369720 268.032776,172.169373 
	C269.702179,168.416809 273.052490,168.189117 276.454132,168.710571 
	C279.717224,169.210754 281.753448,171.249390 282.202667,174.602097 
	C282.425812,176.267548 282.279053,177.914230 280.691162,179.480560 
M273.216949,172.564545 
	C271.493958,173.642426 270.920868,174.984161 272.485291,176.599167 
	C273.652344,177.803909 275.123535,177.927567 276.610687,177.229599 
	C277.557648,176.785172 278.267120,176.075272 278.029205,174.891769 
	C277.559723,172.556458 275.882660,172.198669 273.216949,172.564545 
z"/>
<path fill="#000000" opacity="1.000000" stroke="none" 
	d="
M144.432144,182.251007 
	C149.038879,183.885803 149.061615,187.200775 147.837677,190.523727 
	C146.808365,193.318344 144.076462,193.653473 141.518829,192.994522 
	C138.158997,192.128906 137.501892,189.405518 137.647064,186.352417 
	C137.853104,182.019379 141.023376,182.172226 144.432144,182.251007 
z"/>
<path fill="#000000" opacity="1.000000" stroke="none" 
	d="
M209.130737,156.993713 
	C212.845673,157.430405 214.544632,159.263718 214.123291,162.671753 
	C213.813126,165.180573 212.291595,166.392487 209.723053,166.279510 
	C206.952545,166.157654 205.518707,164.472595 205.109543,161.996750 
	C204.660904,159.282089 206.143875,157.676117 209.130737,156.993713 
z"/>
<path fill="#000000" opacity="1.000000" stroke="none" 
	d="
M220.877319,238.182953 
	C223.389572,237.716461 225.564926,233.445312 227.413712,236.487305 
	C229.237762,239.488602 225.075089,240.812408 223.006134,241.835464 
	C218.323364,244.151031 213.276489,245.327362 208.204285,242.740585 
	C204.985397,241.098984 202.831268,238.732788 203.144684,234.860184 
	C205.594788,234.178955 206.392181,235.582840 207.178986,236.811188 
	C208.138138,238.308624 209.454697,239.251404 211.143051,239.569321 
	C212.710114,239.864395 214.695541,240.605530 215.343842,238.342575 
	C215.949051,236.230042 214.295731,235.516876 212.584183,234.981354 
	C209.672363,234.070267 206.236481,232.977753 207.328018,229.130341 
	C208.432602,225.236938 211.942596,224.278992 215.797897,224.810303 
	C223.145920,225.822968 224.549500,228.813553 220.403381,234.646835 
	C219.526413,235.880630 218.520416,237.148865 220.877319,238.182953 
z"/>
<path fill="#000000" opacity="1.000000" stroke="none" 
	d="
M191.600708,206.233124 
	C188.395767,206.584183 187.082581,204.768860 186.358627,202.425964 
	C185.539001,199.773331 187.032806,198.037750 189.053619,196.641342 
	C190.740875,195.475357 192.457016,195.310699 193.935013,196.927231 
	C195.681900,198.837875 195.913269,201.096313 194.645050,203.292389 
	C194.011856,204.388824 192.857941,205.184555 191.600708,206.233124 
z"/>
<path fill="#000000" opacity="1.000000" stroke="none" 
	d="
M238.245575,204.016205 
	C237.446213,203.632187 236.948975,203.424164 236.652893,203.054871 
	C234.877731,200.840576 233.897446,198.460083 235.794968,195.843155 
	C236.950378,194.249680 238.575699,193.459381 240.556290,194.100204 
	C242.561325,194.748901 243.328979,196.329285 243.277100,198.342102 
	C243.197525,201.430511 242.355682,203.934799 238.245575,204.016205 
z"/>
<path fill="#000000" opacity="1.000000" stroke="none" 
	d="
M247.125641,224.255402 
	C244.845291,223.966980 241.963654,224.700562 242.247162,221.756256 
	C242.463745,219.506699 245.103043,220.041656 246.844574,219.967316 
	C248.497879,219.896759 250.172256,219.953629 251.816025,220.141342 
	C253.127991,220.291153 254.700500,220.611191 254.574539,222.360596 
	C254.452225,224.058990 252.921997,224.202835 251.561081,224.246628 
	C250.233887,224.289337 248.904343,224.259659 247.125641,224.255402 
z"/>
<path fill="#000000" opacity="1.000000" stroke="none" 
	d="
M249.681366,232.687836 
	C252.011002,232.883575 254.319168,232.362991 254.611679,235.294968 
	C250.839722,237.330307 242.924347,236.839539 239.890076,234.250549 
	C242.681290,231.423874 246.178421,233.209793 249.681366,232.687836 
z"/>
<path fill="#000000" opacity="1.000000" stroke="none" 
	d="
M169.204041,220.753540 
	C172.812714,219.482254 176.082581,219.898605 179.323761,220.702881 
	C181.188141,221.165497 181.966080,222.293732 180.460220,223.876236 
	C179.294159,225.101639 169.674500,224.184143 168.689545,222.801636 
	C168.426682,222.432632 168.800568,221.609970 169.204041,220.753540 
z"/>
<path fill="#000000" opacity="1.000000" stroke="none" 
	d="
M171.776901,233.525909 
	C174.090057,232.901917 176.016083,232.385437 177.952347,231.910721 
	C178.982941,231.658066 180.031250,231.723099 180.514832,232.810272 
	C181.010681,233.925064 180.358902,234.838272 179.384186,235.226608 
	C176.191895,236.498428 173.003799,238.080917 169.516754,236.827011 
	C168.874283,234.722229 170.127213,234.181763 171.776901,233.525909 
z"/>
<path fill="#000000" opacity="1.000000" stroke="none" 
	d="
M221.835876,332.720337 
	C220.946121,329.221375 223.520370,327.136078 224.212662,324.561646 
	C219.981094,320.215454 219.981094,320.215454 215.292892,320.216736 
	C214.019547,316.162079 217.012024,313.587494 219.557922,312.411865 
	C223.515076,310.584595 220.848434,316.465393 223.602631,316.929993 
	C225.725601,315.747650 223.155304,311.736572 226.515167,311.530609 
	C229.116928,311.371155 227.609253,314.690643 229.257172,315.627869 
	C230.892365,314.948242 230.571075,311.911774 233.825455,312.587341 
	C235.109177,316.916962 234.431778,321.396515 233.780624,326.084106 
	C230.202286,325.662445 230.609192,323.011261 229.886215,320.701569 
	C227.096359,323.352692 229.158722,324.866699 230.320511,326.679016 
	C232.079361,329.422760 232.367142,332.710785 229.870926,334.813385 
	C227.081238,337.163269 223.965744,336.584717 221.835876,332.720337 
z"/>
<path fill="#000000" opacity="1.000000" stroke="none" 
	d="
M181.777039,324.649139 
	C179.333145,324.434784 177.865417,323.792328 179.324005,321.200043 
	C180.263367,319.530548 181.068832,317.785706 182.303497,315.344818 
	C179.291946,317.030640 175.951080,320.938843 176.012207,314.062592 
	C176.022308,312.924774 173.662292,312.845764 173.440201,310.833496 
	C175.491714,308.038879 178.917236,307.787598 182.039444,307.887360 
	C186.162643,308.019104 184.254089,313.781281 187.649963,314.442444 
	C188.096634,316.821136 185.695297,316.640289 185.152710,318.125854 
	C188.904434,317.744354 191.195251,318.331970 187.951538,322.800629 
	C189.579407,322.935638 192.073410,321.952484 192.128540,324.479401 
	C192.201126,327.806854 194.933258,331.278168 191.978607,334.454132 
	C190.585632,335.951447 188.352798,335.899445 186.831467,335.088165 
	C183.366821,333.240509 182.503189,329.780762 182.521469,326.102600 
	C182.524521,325.486481 183.160263,324.821411 181.777039,324.649139 
z"/>
<path fill="#000000" opacity="1.000000" stroke="none" 
	d="
M317.567078,326.281128 
	C314.384979,326.522095 312.055115,323.486328 308.757568,325.173553 
	C307.333099,325.902435 306.464966,324.061188 307.109833,322.607819 
	C307.691162,321.297577 308.731567,320.190979 309.571075,318.992310 
	C308.602814,317.863800 306.744202,318.596954 306.165985,316.774536 
	C306.193665,316.546906 306.075592,315.914703 306.337585,315.617401 
	C308.392090,313.286102 311.165314,313.372620 313.691010,314.162811 
	C316.472504,315.033081 315.871460,317.249084 315.151520,319.510376 
	C314.350006,322.027863 317.004364,321.582947 317.967560,322.888672 
	C319.415985,320.702667 318.750641,318.657074 319.032593,316.759918 
	C319.208130,315.578857 319.478241,314.313660 320.896942,314.186493 
	C322.661804,314.028351 323.133057,315.432373 323.214630,316.797760 
	C323.364075,319.300476 323.049011,321.960358 326.810974,321.977142 
	C327.686157,321.981018 328.281830,322.748535 328.335205,323.665375 
	C328.419800,325.118073 327.358765,325.852600 326.210602,326.011719 
	C323.349243,326.408173 322.173492,327.920441 322.407928,330.747284 
	C322.537140,332.305328 322.402100,334.060028 320.323517,333.947754 
	C318.371002,333.842346 318.441132,331.983459 318.220032,330.517944 
	C318.010376,329.128387 319.378448,327.609253 317.567078,326.281128 
z"/>
<path fill="#000000" opacity="1.000000" stroke="none" 
	d="
M269.809143,325.886414 
	C270.703186,328.988159 267.712097,331.453674 269.452667,334.602051 
	C270.017548,335.623840 267.457458,337.145630 265.698669,336.689423 
	C263.075043,336.008942 261.574860,333.901794 261.016693,331.390991 
	C259.792053,325.882019 259.885345,325.861298 263.162933,323.835480 
	C261.942841,322.686615 258.935242,324.125031 259.059540,321.450317 
	C259.174225,318.982269 261.648163,319.116119 263.317902,319.040710 
	C266.442017,318.899719 269.778534,317.444641 272.520538,319.621094 
	C273.441498,322.806549 267.380188,321.981262 269.809143,325.886414 
z"/>
<path fill="#000000" opacity="1.000000" stroke="none" 
	d="
M291.003601,313.112000 
	C293.007202,315.515656 293.424805,324.481171 291.850220,326.227966 
	C289.462677,328.876648 286.846405,328.561462 284.363373,326.449219 
	C280.908783,323.510468 282.131714,312.861237 286.120789,310.822327 
	C288.472290,309.620392 289.121307,312.331055 291.003601,313.112000 
z"/>
<path fill="#000000" opacity="1.000000" stroke="none" 
	d="
M249.311035,320.807861 
	C249.447479,317.836914 249.548660,315.189911 249.721573,312.547638 
	C249.799377,311.358673 250.043289,310.129456 251.587585,310.081055 
	C253.068817,310.034576 254.012299,311.443451 253.703766,312.318665 
	C252.599167,315.452026 260.029968,316.355682 255.829498,319.511841 
	C252.592514,321.944061 252.334213,324.689911 252.242447,328.104553 
	C252.187027,330.166565 253.666550,333.485107 250.460403,333.987946 
	C247.422623,334.464386 248.765152,330.590057 247.069565,328.938965 
	C246.529083,328.938965 245.731857,328.864014 244.954346,328.955872 
	C243.663284,329.108337 242.504669,328.893188 242.229553,327.489532 
	C241.964615,326.137787 242.987045,325.456665 244.093597,324.901062 
	C246.028473,323.929535 248.950165,324.294708 249.311035,320.807861 
z"/>
<path fill="#000000" opacity="1.000000" stroke="none" 
	d="
M202.466995,335.233704 
	C198.950424,335.840485 197.356384,334.595306 197.504181,331.286102 
	C197.636612,328.321472 199.008575,324.938141 194.030273,323.869629 
	C197.053223,320.735992 200.010208,319.762268 202.985580,318.942993 
	C204.410690,318.550598 206.248001,318.401550 206.694901,320.340546 
	C207.077530,322.000702 205.442764,322.451294 204.237411,322.974579 
	C203.193787,323.427643 201.912811,323.391907 201.033081,324.710205 
	C201.303009,326.269653 201.607101,328.026489 201.926346,329.870850 
	C203.623734,331.136505 206.291214,328.416443 207.818283,331.482239 
	C207.518326,334.255035 204.671432,334.093842 202.466995,335.233704 
z"/>
<path fill="#000000" opacity="1.000000" stroke="none" 
	d="
M295.805298,318.148193 
	C296.047455,315.981049 295.778137,313.050934 298.178864,313.669495 
	C302.023438,314.660126 299.333557,318.564240 300.325195,321.035431 
	C301.420349,322.360474 303.734161,321.070221 304.661591,323.019562 
	C305.005402,324.427063 304.058960,325.250275 302.903442,325.494171 
	C299.795807,326.149994 299.041748,328.151764 299.193665,330.984894 
	C299.264374,332.303497 299.086914,333.884460 297.242188,333.855652 
	C295.560974,333.829346 295.152161,332.337677 294.980835,331.014496 
	C294.438507,326.825806 295.545654,322.724243 295.805298,318.148193 
z"/>
<path fill="#000000" opacity="1.000000" stroke="none" 
	d="
M194.982849,308.610992 
	C196.070953,308.105164 196.849091,307.760773 197.650940,307.691711 
	C200.681915,307.430664 202.882828,308.559753 203.582092,311.710358 
	C204.044266,313.792694 203.816376,315.967773 201.674286,316.862152 
	C199.065521,317.951447 196.522049,317.484802 194.368729,315.320160 
	C192.038895,312.978119 192.576813,310.940063 194.982849,308.610992 
z"/>
<path fill="#000000" opacity="1.000000" stroke="none" 
	d="
M260.997314,309.019348 
	C263.979614,306.941315 266.313995,307.563721 268.314758,309.857574 
	C269.690582,311.434906 269.636841,313.261902 268.597870,314.926788 
	C267.186584,317.188263 264.960938,318.050629 262.598633,316.811615 
	C259.410126,315.139221 258.779205,312.470215 260.997314,309.019348 
z"/>
<path fill="#000000" opacity="1.000000" stroke="none" 
	d="
M247.981812,312.851196 
	C247.328308,314.557190 246.809998,315.984833 245.942505,317.153290 
	C244.825439,318.657898 243.715591,321.154541 241.363953,319.763733 
	C239.150986,318.454956 241.676041,316.563873 241.716293,314.938904 
	C240.473724,313.720581 237.415390,314.705841 237.847305,311.949890 
	C238.282333,309.174011 240.797867,309.849976 242.668121,309.760101 
	C244.895233,309.653107 247.019775,309.949646 247.981812,312.851196 
z"/>
<path fill="#000000" opacity="1.000000" stroke="none" 
	d="
M332.925781,318.324615 
	C333.909821,316.184906 332.632263,312.554535 335.458771,312.837036 
	C338.600494,313.150940 337.135620,316.559052 337.155457,318.623779 
	C337.177979,320.970520 337.191986,323.625671 334.180450,324.669464 
	C331.812195,322.999603 332.933075,320.742859 332.925781,318.324615 
z"/>
<path fill="#000000" opacity="1.000000" stroke="none" 
	d="
M67.169678,81.587082 
	C68.000084,82.641891 68.242577,85.036224 69.780190,82.541367 
	C70.454773,81.446800 71.197357,80.564911 72.546524,81.195778 
	C73.723114,81.745941 73.895706,82.950485 74.047867,84.147957 
	C74.844597,90.418396 73.126915,96.163300 70.494934,101.737976 
	C69.372749,104.114838 67.339149,104.425171 65.053825,104.306725 
	C62.878456,104.193977 61.194435,103.422142 60.456097,101.189552 
	C59.730949,98.996864 60.616287,97.253059 62.080791,95.783760 
	C62.868919,94.993057 63.938900,94.483299 64.851089,93.867455 
	C63.202930,89.223793 60.269333,88.232834 53.311821,90.003235 
	C51.315353,86.195503 54.036457,82.763748 56.139629,81.532532 
	C60.546078,78.952942 58.617851,87.210365 63.493015,86.071198 
	C64.271294,85.447464 63.322395,83.802711 63.730377,82.475418 
	C64.328133,80.530716 65.324615,80.052574 67.169678,81.587082 
z"/>
<path fill="#000000" opacity="1.000000" stroke="none" 
	d="
M197.638458,87.745712 
	C202.087677,87.926651 200.276947,90.661140 199.926849,92.905136 
	C203.520218,92.743965 203.040634,89.862427 203.592911,87.849304 
	C204.023590,86.279472 204.553452,84.728539 206.421219,85.053101 
	C208.639038,85.438492 207.984909,87.292946 207.586044,88.671463 
	C206.557755,92.225365 208.725235,96.392029 205.538910,99.684586 
	C206.257874,100.479683 207.176437,99.573631 208.021378,99.698067 
	C209.331253,99.890976 210.952164,99.708076 211.183777,101.443695 
	C211.441284,103.373306 209.931046,103.951462 208.356659,104.225227 
	C207.211624,104.424339 206.051758,104.536560 204.903244,104.717575 
	C200.260422,105.449318 199.242554,104.304970 199.579437,98.710052 
	C197.229630,97.670532 194.417725,100.987312 192.335266,98.139023 
	C191.715256,95.905731 194.529617,95.541656 194.366272,93.706146 
	C194.108963,92.024887 192.276413,92.265030 191.428268,91.304443 
	C189.424118,89.034592 188.863892,86.177803 190.793137,84.058327 
	C192.959396,81.678490 196.289917,81.982635 199.119553,83.213448 
	C200.385101,83.763916 200.164993,85.137489 198.947052,86.025543 
	C197.914200,86.778664 196.282730,85.933250 195.261124,87.560020 
	C196.088531,87.638657 196.706543,87.697395 197.638458,87.745712 
z"/>
<path fill="#000000" opacity="1.000000" stroke="none" 
	d="
M134.965271,85.586052 
	C134.281387,86.166405 133.781998,86.519096 132.498322,87.425682 
	C137.322891,87.583458 140.237228,85.871231 142.367401,83.064987 
	C144.406601,83.252426 144.871506,84.533447 144.916306,85.890137 
	C144.965118,87.368431 144.947723,88.935547 144.512558,90.323959 
	C143.761108,92.721611 145.327347,95.928352 143.369019,97.466972 
	C140.695648,99.567398 139.665298,95.235069 137.208389,94.728859 
	C135.343933,94.344696 134.329620,94.589615 132.818359,95.414162 
	C129.072388,97.457954 125.385818,95.807220 125.157211,91.713997 
	C125.022072,89.294449 124.082344,87.391266 122.892708,84.974335 
	C126.468353,84.408981 125.459801,78.076630 129.315094,79.608299 
	C131.141220,80.333801 136.116180,80.660492 134.965271,85.586052 
z"/>
<path fill="#000000" opacity="1.000000" stroke="none" 
	d="
M147.801727,90.069443 
	C144.193008,86.437546 147.994385,85.030495 149.799591,83.462502 
	C155.657211,78.374573 152.869507,88.207458 157.348602,87.101166 
	C158.294434,86.759628 157.733292,83.975143 160.133438,83.358452 
	C162.507309,84.059380 161.988739,85.888680 161.777298,87.979515 
	C161.258057,93.113953 158.662720,97.983986 160.209427,103.430969 
	C160.776154,105.426796 158.648270,106.070160 156.849442,106.134262 
	C154.101364,106.232201 151.921463,104.830719 152.045990,102.212616 
	C152.173447,99.532433 150.845886,97.552696 150.089951,95.428070 
	C151.346680,92.919380 154.023499,93.562653 156.380646,91.910431 
	C153.078384,91.997421 151.329620,88.640892 147.801727,90.069443 
z"/>
<path fill="#000000" opacity="1.000000" stroke="none" 
	d="
M92.685844,90.631554 
	C91.405487,93.850540 92.641640,96.882698 92.050095,99.822433 
	C91.783989,101.144920 91.544800,102.583542 89.935898,102.825035 
	C88.443184,103.049095 87.880585,101.870583 87.761566,100.663239 
	C87.384819,96.841202 83.712090,99.548569 82.131477,97.641937 
	C81.840813,93.752129 85.740837,94.770706 87.885788,92.949684 
	C87.916435,89.934479 87.603279,86.460121 88.538055,83.097839 
	C88.859673,81.941040 89.132271,80.740135 90.601135,80.679161 
	C92.229561,80.611557 92.615135,81.873680 92.386322,83.052170 
	C91.788025,86.133675 95.577614,84.946381 95.943512,86.563393 
	C96.282463,89.306992 93.750862,89.052757 92.685844,90.631554 
z"/>
<path fill="#000000" opacity="1.000000" stroke="none" 
	d="
M227.169205,104.095779 
	C223.619202,105.445000 223.666138,103.004547 223.854172,101.108841 
	C224.326508,96.347321 225.099594,91.615891 225.735458,86.870163 
	C225.911407,85.557076 226.471375,84.607155 227.938339,84.804573 
	C229.458893,85.009193 229.591583,86.213196 229.491241,87.439400 
	C229.233261,90.592171 228.647919,93.867851 233.865555,95.034431 
	C230.303009,97.660469 227.503464,99.881607 227.169205,104.095779 
z"/>
<path fill="#000000" opacity="1.000000" stroke="none" 
	d="
M171.018005,96.002533 
	C170.131577,95.917351 169.645050,95.837746 169.169327,95.716003 
	C166.002533,94.905640 164.306686,92.906387 164.853821,89.614471 
	C165.258499,87.179672 166.695343,85.302948 169.410492,85.187370 
	C172.484100,85.056534 174.381699,86.800766 175.028397,89.678307 
	C175.718613,92.749527 175.062454,95.280579 171.018005,96.002533 
z"/>
<path fill="#000000" opacity="1.000000" stroke="none" 
	d="
M211.959412,88.990097 
	C212.103439,85.554810 213.973373,84.103767 216.710236,83.830757 
	C218.705933,83.631683 221.144470,82.997284 221.912949,85.910439 
	C221.131180,88.733238 217.566299,86.388344 216.714233,88.909920 
	C216.662689,90.601166 217.918976,90.593781 219.070084,90.741898 
	C220.449341,90.919380 221.869186,91.230606 221.573151,93.048187 
	C221.316666,94.623100 219.938141,95.030960 218.555527,95.071594 
	C214.660416,95.186073 212.232132,93.522751 211.959412,88.990097 
z"/>
<path fill="#000000" opacity="1.000000" stroke="none" 
	d="
M176.971619,105.098824 
	C175.674988,98.964737 177.293411,93.160820 176.526352,87.380775 
	C176.392883,86.375061 176.914566,85.390602 178.172012,85.304474 
	C179.099701,85.240936 179.893005,85.744156 180.049057,86.610077 
	C181.149368,92.715347 180.474045,98.843956 179.970108,104.940048 
	C179.852676,106.360687 178.309616,106.225800 176.971619,105.098824 
z"/>
<path fill="#000000" opacity="1.000000" stroke="none" 
	d="
M81.798660,91.769440 
	C79.136612,91.580643 78.980499,90.144669 79.572655,88.295456 
	C79.857201,87.406868 80.765472,86.456253 79.807991,85.582306 
	C78.510269,84.397781 76.157257,83.276764 78.619095,81.509804 
	C80.565880,80.112518 83.284096,79.365433 85.539803,81.127197 
	C87.734299,82.841156 86.787476,84.975471 85.561043,86.860550 
	C84.492188,88.503441 83.284363,90.055908 81.798660,91.769440 
z"/>
<path fill="#000000" opacity="1.000000" stroke="none" 
	d="
M100.989258,79.861176 
	C104.349380,78.468010 107.010727,78.652283 108.044945,82.227814 
	C108.742050,84.637886 108.074409,87.029930 105.528992,88.003799 
	C102.851120,89.028358 100.712738,87.898178 99.340462,85.375145 
	C98.158150,83.201393 99.206017,81.597908 100.989258,79.861176 
z"/>
<path fill="#000000" opacity="1.000000" stroke="none" 
	d="
M100.768875,102.533913 
	C100.784035,100.060410 100.164062,97.664719 103.026344,96.949806 
	C105.196800,97.240005 103.984367,99.759193 105.571640,100.379089 
	C107.319427,100.209145 109.132408,99.821640 110.919632,99.917030 
	C112.799057,100.017342 113.667656,101.271584 112.594322,103.010406 
	C111.289200,105.124733 102.647690,104.984848 100.768875,102.533913 
z"/>
<path fill="#000000" opacity="1.000000" stroke="none" 
	d="
M106.200035,90.745056 
	C108.771362,90.983620 111.313332,89.709511 112.881828,92.286880 
	C110.568611,94.710022 100.851509,96.500259 98.209244,95.068802 
	C97.396873,94.628700 96.939133,94.015007 97.118439,93.096405 
	C97.298912,92.171829 97.998604,91.751343 98.880531,91.636703 
	C101.173386,91.338646 103.468681,91.059418 106.200035,90.745056 
z"/>
<path fill="#000000" opacity="1.000000" stroke="none" 
	d="
M237.610657,86.896698 
	C237.812668,85.183571 237.813171,83.782883 239.441772,83.296730 
	C241.752090,85.517952 241.718048,95.696754 239.259979,97.154068 
	C237.271179,98.333176 236.426071,96.973602 236.551590,95.184074 
	C236.736694,92.545143 237.216324,89.926865 237.610657,86.896698 
z"/>
<path fill="#000000" opacity="1.000000" stroke="none" 
	d="
M141.638123,100.288818 
	C143.433334,99.916649 144.765442,100.016029 144.945312,101.824272 
	C145.081284,103.191055 144.116302,104.075172 142.881104,104.182739 
	C140.427017,104.396484 138.058929,107.712791 135.626633,104.945679 
	C133.933273,103.019234 134.093338,100.462326 135.224014,98.237320 
	C137.931183,97.966614 138.672577,101.610077 141.638123,100.288818 
z"/>
<path fill="#000000" opacity="1.000000" stroke="none" 
	d="
M285.598022,116.903519 
	C290.205353,110.567108 296.894440,108.461868 303.723236,110.917969 
	C305.878357,111.693108 307.790894,112.689278 310.386566,112.114929 
	C315.796234,110.917976 321.175995,111.082504 324.645142,116.418533 
	C328.156250,121.819214 327.315491,127.479073 325.052826,133.097351 
	C324.930176,133.401886 324.728607,133.679214 324.538116,133.951248 
	C313.826202,149.248459 310.091888,151.015320 293.882019,139.285690 
	C290.363586,136.739716 287.693298,133.324020 285.536194,129.503036 
	C283.214478,125.390495 282.825592,121.363571 285.598022,116.903519 
M300.007416,138.554169 
	C303.350342,140.278152 306.575714,143.109451 310.503632,142.258163 
	C316.766998,140.900681 323.934052,128.543106 322.595886,122.267273 
	C321.337799,116.367073 314.749573,113.305794 311.169586,117.262543 
	C308.374146,120.352196 307.055450,119.823959 304.747925,116.887802 
	C301.827118,113.171288 295.598145,113.297531 291.227478,116.658051 
	C287.798981,119.294159 287.128143,123.496742 289.598419,127.792290 
	C292.026886,132.015198 295.233490,135.547211 300.007416,138.554169 
z"/>
<path fill="#000000" opacity="1.000000" stroke="none" 
	d="
M197.599915,139.104431 
	C194.761932,139.600998 192.325287,140.245453 189.870361,140.324738 
	C181.898178,140.582199 176.906586,136.085922 176.717819,128.727463 
	C176.514679,120.809074 181.864349,114.891403 189.432449,114.662872 
	C201.188919,114.307861 208.371246,123.237877 204.295990,133.043457 
	C203.052338,136.035797 200.847565,137.809387 197.599915,139.104431 
z"/>
</svg>